<svg width="29" height="44" viewBox="0 0 29 44" fill="none" xmlns="http://www.w3.org/2000/svg">
<path d="M13.05 11.6539C13.05 15.5085 9.9252 18.6333 6.07056 18.6333H2.175C1.77444 18.6333 1.45 18.954 1.45 19.35V19.6629C1.45 21.2306 1.08142 22.7763 0.374023 24.1753L0.0770313 24.7626C0.0262813 24.8621 0 24.9722 0 25.0833V39.4167C0 39.5277 0.0262813 39.6379 0.0770313 39.7374L1.52703 42.604C1.64938 42.8468 1.90041 43 2.175 43H13.775C14.0496 43 14.3006 42.8468 14.423 42.604C14.4303 42.5895 14.4485 42.5844 14.4625 42.5927C15.0721 42.9541 15.769 43.0697 16.4277 42.961C17.5399 42.7774 18.9424 42.6477 20.0427 42.893C20.3552 42.9627 20.6847 43 21.025 43C22.6844 43 24.9734 43.2416 26.6081 42.9561C27.074 42.8747 27.5263 42.6792 27.9207 42.3649C28.604 41.8211 29 41.0005 29 40.1333C29 40.1181 29 40.1038 28.9982 40.0885L28.3431 29.73C28.2996 29.0421 28.3274 28.3515 28.4259 27.6693L28.9918 23.7512C28.9963 23.7184 28.9982 23.6846 28.9982 23.6509C28.9982 23.6504 28.9986 23.65 28.9991 23.65C28.9996 23.65 29 23.6496 29 23.6491V11.6539C29.0009 10.9184 28.7725 10.2009 28.3448 9.59885L24.6255 4.34733C24.6115 4.32747 24.6257 4.3 24.65 4.3C25.0506 4.3 25.375 3.97929 25.375 3.58333V2.15C25.3741 0.963021 24.4008 0.000895833 23.2 0H18.85C17.6492 0.000895833 16.6759 0.963021 16.675 2.15V3.58333C16.675 3.97929 16.9994 4.3 17.4 4.3C17.4243 4.3 17.4386 4.32747 17.4245 4.34733L13.7061 9.59885C13.2784 10.2009 13.0491 10.9184 13.05 11.6539ZM4.65803 38.7C2.88629 38.7 1.45 37.2637 1.45 35.492V29.2956C1.45 27.365 3.01504 25.8 4.94562 25.8C6.38417 25.8 7.71104 26.6705 8.12421 28.0484C8.46595 29.1882 8.7 30.3551 8.7 31.5333C8.7 33.8925 8.163 35.5343 7.40575 37.0648C6.89548 38.0961 5.80869 38.7 4.65803 38.7ZM9.19624 26.6612C9.05057 26.243 9.35607 25.8 9.79889 25.8C10.0593 25.8 10.2936 25.9593 10.3865 26.2026C11.0393 27.9131 11.6 29.7098 11.6 31.5333C11.6 34.5986 10.6935 36.4527 9.57517 38.4253C9.47879 38.5953 9.29808 38.7 9.10267 38.7C8.68775 38.7 8.42498 38.2546 8.61303 37.8847C9.48465 36.1703 10.15 34.2788 10.15 31.5333C10.15 29.8365 9.73631 28.2116 9.19624 26.6612ZM13.5261 41.1731C13.4042 41.4145 13.1568 41.5667 12.8864 41.5667H3.06332C2.79306 41.5667 2.54579 41.4146 2.42381 41.1735C2.18268 40.6968 2.52911 40.1333 3.06332 40.1333H12.8864C13.4205 40.1333 13.7669 40.6965 13.5261 41.1731ZM26.1 41.5667C25.2998 41.5658 24.6509 40.9244 24.65 40.1333C24.65 39.7374 24.3256 39.4167 23.925 39.4167C23.5244 39.4167 23.2 39.7374 23.2 40.1333C23.2 40.91 22.204 41.5667 21.025 41.5667C19.846 41.5667 18.85 40.91 18.85 40.1333C18.85 39.7374 18.5256 39.4167 18.125 39.4167C17.7244 39.4167 17.4 39.7374 17.4 40.1333C17.4 40.9244 16.752 41.5667 15.9509 41.5667C15.4195 41.5667 15.2651 40.9382 15.505 40.464L15.873 39.7365C15.9237 39.637 15.9491 39.5277 15.95 39.4167V25.0833C15.95 24.9722 15.9237 24.8621 15.873 24.7626C15.7812 24.5812 15.9131 24.3667 16.1164 24.3667H23.1961C25.4339 24.3667 27.1516 26.3507 26.8313 28.5654C26.8241 28.6138 26.8223 28.6631 26.825 28.7115L27.55 40.1539C27.5382 40.9369 26.893 41.5658 26.1 41.5667ZM18.125 2.15C18.125 1.75404 18.4494 1.43333 18.85 1.43333H23.2C23.6006 1.43333 23.925 1.75404 23.925 2.15C23.925 2.5458 23.6041 2.86667 23.2083 2.86667H18.8417C18.4459 2.86667 18.125 2.5458 18.125 2.15ZM14.5 11.6539C14.4991 11.2122 14.6368 10.7823 14.8933 10.4212L18.1891 5.76705C18.8406 4.84691 19.8981 4.3 21.0255 4.3C22.1529 4.3 23.2103 4.84683 23.8619 5.76685L27.1576 10.4203C27.4141 10.7814 27.5518 11.2122 27.5509 11.653C27.5509 12.3417 26.9926 12.9 26.3039 12.9H15.7461C15.0579 12.9 14.5 12.3421 14.5 11.6539ZM14.5 20.5628C14.5 17.1224 17.289 14.3333 20.7295 14.3333H23.25C25.6248 14.3333 27.55 16.2585 27.55 18.6333C27.55 21.0082 25.6248 22.9333 23.25 22.9333H15.6632C15.2244 22.9333 14.8229 22.6864 14.625 22.2948C14.5428 22.1321 14.5 21.9524 14.5 21.7702V20.5628ZM14.5 37.4308C14.5 38.1318 13.9318 38.7 13.2308 38.7C12.2643 38.7 11.6574 37.663 12.0319 36.7719C12.6353 35.3359 13.05 33.7007 13.05 31.5333C13.05 30.0741 12.7441 28.6681 12.3149 27.3169C12.0798 26.5766 12.6134 25.8 13.3901 25.8C14.0031 25.8 14.5 26.2969 14.5 26.9099V37.4308ZM3.06332 24.3667C2.52911 24.3667 2.18268 23.8032 2.42381 23.3265C2.54579 23.0854 2.79306 22.9333 3.06332 22.9333H9.425C9.82556 22.9333 10.15 22.6126 10.15 22.2167C10.15 21.8207 9.82556 21.5 9.425 21.5H3.61667C3.22086 21.5 2.9 21.1791 2.9 20.7833C2.9 20.3875 3.22086 20.0667 3.61667 20.0667H12.3333C12.7291 20.0667 13.05 20.3875 13.05 20.7833C13.05 21.1791 12.7291 21.5 12.3333 21.5H12.325C11.9244 21.5 11.6 21.8207 11.6 22.2167C11.6 22.6126 11.9244 22.9333 12.325 22.9333H12.8867C13.1569 22.9333 13.4042 23.0854 13.5262 23.3265C13.7673 23.8032 13.4209 24.3667 12.8867 24.3667H3.06332Z" fill="#9FA6B9"/>
</svg>
