<svg width="23" height="26" viewBox="0 0 23 26" fill="none" xmlns="http://www.w3.org/2000/svg">
<path d="M22.5252 20.691C22.4397 20.6414 21.7967 20.2384 21.1528 19.0194C19.9703 16.7809 19.722 13.6275 19.722 11.3763C19.722 11.3665 19.7218 11.3568 19.7214 11.347C19.7085 8.3718 17.7168 5.80704 14.8666 4.65629V2.89636C14.8666 1.29929 13.4165 0 11.6339 0H11.366C9.58352 0 8.13334 1.29929 8.13334 2.89636V4.65618C5.27363 5.81064 3.27794 8.3885 3.27794 11.3763C3.27794 13.6275 3.02973 16.7808 1.84723 19.0194C1.20338 20.2384 0.560329 20.6413 0.474831 20.691C0.114784 20.84 -0.0627412 21.1843 0.0200888 21.5332C0.103714 21.8856 0.471936 22.1285 0.87405 22.1285H7.11593C7.15079 24.2685 9.1034 26 11.5 26C13.8966 26 15.8492 24.2685 15.8841 22.1285H22.126C22.5281 22.1285 22.8963 21.8856 22.98 21.5332C23.0627 21.1843 22.8852 20.84 22.5252 20.691ZM9.83655 2.89636C9.83655 2.14068 10.5227 1.52593 11.3661 1.52593H11.634C12.4774 1.52593 13.1635 2.14068 13.1635 2.89636V4.16168C12.626 4.0623 12.0696 4.00999 11.4998 4.00999C10.9301 4.00999 10.3739 4.06225 9.83661 4.16152L9.83655 2.89636ZM11.5 24.4741C10.0425 24.4741 8.85366 23.4271 8.81909 22.1286H14.1809C14.1464 23.4271 12.9575 24.4741 11.5 24.4741ZM14.929 20.6026C14.9289 20.6026 2.81479 20.6026 2.81479 20.6026C2.96212 20.3972 3.11205 20.1647 3.26108 19.9019C4.40241 17.8888 4.98115 15.0203 4.98115 11.3763C4.98115 8.15587 7.9054 5.53592 11.4997 5.53592C15.0941 5.53592 18.0183 8.15587 18.0183 11.3788C18.0183 11.3882 18.0185 11.3975 18.0189 11.4069C18.0221 15.0363 18.6008 17.8944 19.739 19.9019C19.888 20.1647 20.038 20.3972 20.1852 20.6026H14.929Z" fill="#18172B"/>
</svg>
