<svg width="28" height="20" viewBox="0 0 28 20" fill="none" xmlns="http://www.w3.org/2000/svg">
<path d="M26.7274 20H1.27258C0.572578 20 0 19.3072 0 18.4611V1.53826C0 0.692117 0.572578 0 1.27258 0H26.7269C27.4274 0 28 0.692117 28 1.53826V18.4611C28 19.3072 27.4274 20 26.7274 20Z" fill="#0E9347"/>
<path d="M24.1818 18.4611H3.81835C3.81835 16.7688 2.67319 15.3839 1.27319 15.3839V4.61543C2.67319 4.61543 3.81835 3.23119 3.81835 1.53891H24.1818C24.1818 3.23119 25.3275 4.61543 26.7269 4.61543V15.3846C25.3275 15.3846 24.1818 16.7688 24.1818 18.4611Z" fill="#3BB54A"/>
<path d="M14 16C16.8403 16 19.1428 13.5376 19.1428 10.5C19.1428 7.46243 16.8403 5 14 5C11.1597 5 8.85724 7.46243 8.85724 10.5C8.85724 13.5376 11.1597 16 14 16Z" fill="#0E9347"/>
<path d="M6.28556 11.722C6.99555 11.722 7.57112 11.1749 7.57112 10.5C7.57112 9.82508 6.99555 9.27795 6.28556 9.27795C5.57556 9.27795 5 9.82508 5 10.5C5 11.1749 5.57556 11.722 6.28556 11.722Z" fill="#0E9347"/>
<path d="M21.7144 11.722C22.4244 11.722 23 11.1749 23 10.5C23 9.82508 22.4244 9.27795 21.7144 9.27795C21.0044 9.27795 20.4289 9.82508 20.4289 10.5C20.4289 11.1749 21.0044 11.722 21.7144 11.722Z" fill="#0E9347"/>
<path d="M14.5001 9.50036H13.5003C13.2004 9.50036 13.0002 9.30059 13.0002 9.00029C13.0002 8.70042 13.2 8.50021 13.5003 8.50021H15.0002C15.3001 8.50021 15.5003 8.30044 15.5003 8.00014C15.5003 7.70027 15.3005 7.50007 15.0002 7.50007H14.5001C14.5001 7.2002 14.3003 7 14 7C13.7001 7 13.4999 7.19977 13.4999 7.50007C12.6501 7.50007 12 8.15008 12 8.99986C12 9.84963 12.6501 10.4996 13.4999 10.4996H14.4997C14.7996 10.4996 14.9998 10.6994 14.9998 10.9997C14.9998 11.2996 14.8 11.4998 14.4997 11.4998H12.9998C12.6999 11.4998 12.4997 11.6996 12.4997 11.9999C12.4997 12.2997 12.6995 12.4999 12.9998 12.4999H13.4999C13.4999 12.7998 13.6997 13 14 13C14.2999 13 14.5001 12.8002 14.5001 12.4999C15.3499 12.4999 16 11.8499 16 11.0001C16 10.1504 15.3499 9.50036 14.5001 9.50036Z" fill="#89C763"/>
</svg>
