<svg width="27" height="20" viewBox="0 0 27 20" fill="none" xmlns="http://www.w3.org/2000/svg">
<path d="M24.4687 19.7501H2.53127C1.13546 19.7501 0 18.6567 0 17.3126V13.25C0 12.8009 0.377369 12.4375 0.843755 12.4375C2.23956 12.4375 3.37502 11.3441 3.37502 10C3.37502 8.6559 2.23956 7.56249 0.843755 7.56249C0.377369 7.56255 0 7.19915 0 6.75004V2.68752C0 1.34341 1.13546 0.25 2.53127 0.25H24.4688C25.8646 0.25 27.0001 1.34341 27.0001 2.68752V6.75004C27.0001 7.19915 26.6227 7.56255 26.1563 7.56255C24.7605 7.56255 23.625 8.65595 23.625 10.0001C23.625 11.3442 24.7605 12.4376 26.1563 12.4376C26.6227 12.4376 27.0001 12.801 27.0001 13.2501V17.3126C27 18.6567 25.8646 19.7501 24.4687 19.7501ZM1.68751 13.9808V17.3126C1.68751 17.7608 2.06573 18.1251 2.53127 18.1251H24.4688C24.9343 18.1251 25.3125 17.7608 25.3125 17.3126V13.9808C23.3894 13.6031 21.9375 11.9623 21.9375 10C21.9375 8.03775 23.3893 6.39693 25.3125 6.01921V2.68752C25.3125 2.23922 24.9343 1.87501 24.4688 1.87501H2.53127C2.06573 1.87501 1.68751 2.23922 1.68751 2.68752V6.01926C3.61066 6.39693 5.06253 8.03781 5.06253 10.0001C5.06253 11.9623 3.61066 13.6031 1.68751 13.9808Z" fill="#18172B"/>
<path d="M10.1792 16.2036L15.2399 3.20823L16.82 3.7788L11.7593 16.7742L10.1792 16.2036Z" fill="#18172B"/>
<path d="M9.50849 10.2736C8.11268 10.2736 6.97722 9.18017 6.97722 7.83606C6.97722 6.49195 8.11268 5.39855 9.50849 5.39855C10.9043 5.39855 12.0398 6.49195 12.0398 7.83606C12.0398 9.18017 10.9043 10.2736 9.50849 10.2736ZM9.50849 7.02356C9.04296 7.02356 8.66474 7.38777 8.66474 7.83606C8.66474 8.28435 9.04296 8.64857 9.50849 8.64857C9.97402 8.64857 10.3522 8.28435 10.3522 7.83606C10.3522 7.38777 9.97402 7.02356 9.50849 7.02356Z" fill="#18172B"/>
<path d="M18.23 15.3127C16.8342 15.3127 15.6987 14.2192 15.6987 12.8751C15.6987 11.531 16.8342 10.4376 18.23 10.4376C19.6258 10.4376 20.7612 11.531 20.7612 12.8751C20.7612 14.2192 19.6258 15.3127 18.23 15.3127ZM18.23 12.0626C17.7644 12.0626 17.3862 12.4268 17.3862 12.8751C17.3862 13.3234 17.7644 13.6876 18.23 13.6876C18.6955 13.6876 19.0737 13.3234 19.0737 12.8751C19.0737 12.4268 18.6955 12.0626 18.23 12.0626Z" fill="#18172B"/>
</svg>
