<svg width="33" height="7" viewBox="0 0 33 7" fill="none" xmlns="http://www.w3.org/2000/svg">
<path d="M16.5 7C14.5689 7 13 5.43048 13 3.50146C13 1.57244 14.5689 0 16.5 0C18.4311 0 20 1.57244 20 3.50146C20 5.43048 18.4311 7 16.5 7Z" fill="#9FA5C0"/>
<path d="M3.5 7C1.56886 7 0 5.43048 0 3.50146C0 1.57244 1.56886 0 3.5 0C5.43114 0 7 1.57244 7 3.50146C7 5.43048 5.43114 7 3.5 7Z" fill="#9FA5C0"/>
<path d="M29.5 7C27.5689 7 26 5.43048 26 3.50146C26 1.57244 27.5689 0 29.5 0C31.4311 0 33 1.57244 33 3.50146C33 5.43048 31.4311 7 29.5 7Z" fill="#9FA5C0"/>
</svg>
