<svg width="24" height="25" viewBox="0 0 24 25" fill="none" xmlns="http://www.w3.org/2000/svg">
<path d="M19 7.5H22" stroke="#18172B" stroke-width="2" stroke-linecap="round" stroke-linejoin="round"/>
<path d="M2.43115 7.5H13.6812" stroke="#18172B" stroke-width="2" stroke-linecap="round" stroke-linejoin="round"/>
<path d="M10.75 17.5H21.75" stroke="#18172B" stroke-width="2" stroke-linecap="round" stroke-linejoin="round"/>
<path d="M2.43115 17.5H5.43115" stroke="#18172B" stroke-width="2" stroke-linecap="round" stroke-linejoin="round"/>
<path d="M16.5 10C17.8807 10 19 8.88071 19 7.5C19 6.11929 17.8807 5 16.5 5C15.1193 5 14 6.11929 14 7.5C14 8.88071 15.1193 10 16.5 10Z" stroke="#18172B" stroke-width="2" stroke-linecap="round" stroke-linejoin="round"/>
<path d="M8.25 20C9.63071 20 10.75 18.8807 10.75 17.5C10.75 16.1193 9.63071 15 8.25 15C6.86929 15 5.75 16.1193 5.75 17.5C5.75 18.8807 6.86929 20 8.25 20Z" stroke="#18172B" stroke-width="2" stroke-linecap="round" stroke-linejoin="round"/>
</svg>
