<svg width="42" height="43" viewBox="0 0 42 43" fill="none" xmlns="http://www.w3.org/2000/svg">
<g fill="#C49753" >
<path d="M41.7558 0.243369C41.5319 0.0166116 41.2005 -0.0589744 40.9044 0.0502053L6.83266 12.4875C5.64895 11.7467 4.14778 11.5729 2.77048 12.1566C0.484264 13.1257 -0.605111 15.8183 0.342351 18.1589C2.57524 23.6775 5.79907 28.6166 9.92442 32.8411C14.0498 37.0655 18.8749 40.3652 24.2651 42.6513C24.8246 42.889 25.4054 43.0007 25.9763 43.0007C27.7383 43.0007 29.4126 41.9315 30.1279 40.1645C30.6086 38.9753 30.5635 37.6954 30.1033 36.5968L41.9568 1.11261C42.0577 0.807744 41.9806 0.469287 41.7558 0.243369ZM11.9916 12.3875L15.6026 11.0698C16.0267 11.5325 16.2334 12.1692 16.1506 12.8125C16.0776 13.3794 15.7938 13.8833 15.35 14.2318C14.907 14.5803 14.3582 14.7307 13.8045 14.6559C13.2508 14.5812 12.7586 14.2906 12.419 13.8371C12.1048 13.418 11.9563 12.9082 11.9916 12.3875ZM28.6111 39.522C28.0107 41.0069 26.3422 41.714 24.8918 41.0992C14.3886 36.6447 6.20841 28.2698 1.85747 17.5164C1.56626 16.7975 1.56626 16.0056 1.85747 15.2858C2.14868 14.5669 2.69583 14.0067 3.39802 13.7086C4.1002 13.4104 4.87458 13.4104 5.57677 13.7086C6.27895 14.0067 6.8261 14.5669 7.11731 15.2858C8.97942 19.889 11.6684 24.0084 15.1096 27.5316C18.5508 31.0547 22.5753 33.8077 27.0706 35.7142C28.5209 36.3289 29.2116 38.0372 28.6111 39.522ZM35.8988 14.0538C35.825 14.0521 35.7503 14.0479 35.6765 14.0378C35.1228 13.9631 34.6306 13.6725 34.291 13.219C33.9514 12.7654 33.8037 12.2036 33.8767 11.6367C34.0268 10.4668 35.0793 9.63954 36.2228 9.79407C36.5756 9.84194 36.907 9.98136 37.1892 10.1947L35.8988 14.0538ZM37.7338 8.56034C37.3344 8.33778 36.8947 8.18913 36.4361 8.12698C34.396 7.85151 32.5183 9.32712 32.2492 11.4158C32.1188 12.4278 32.3813 13.4306 32.9883 14.2402C33.5724 15.0204 34.4099 15.5294 35.3533 15.6847L33.7225 20.5659L31.8473 19.0928C31.488 18.8106 30.9728 18.8795 30.6972 19.2482C30.4216 19.616 30.4888 20.1435 30.849 20.4257L33.1622 22.2431L28.9229 34.9382C28.5668 34.6215 28.1575 34.357 27.699 34.1621C19.0053 30.4752 12.2344 23.5432 8.63325 14.6425C8.50774 14.3326 8.3527 14.0454 8.17306 13.7808L10.3699 12.9788C10.4461 13.6565 10.7004 14.3024 11.1163 14.8583C11.7234 15.6679 12.6011 16.187 13.5896 16.3205C13.7553 16.3432 13.9202 16.3541 14.0842 16.3541C14.9004 16.3541 15.6896 16.0811 16.3483 15.5638C17.1391 14.9423 17.646 14.0437 17.7765 13.0317C17.8929 12.123 17.6862 11.2235 17.2211 10.4785L27.4184 6.75636L27.8048 7.71126C27.936 8.0346 28.2412 8.23028 28.5627 8.23028C28.6669 8.23028 28.7736 8.20929 28.8761 8.16646C29.2945 7.98925 29.493 7.49794 29.3199 7.06878L28.9647 6.19198L39.8519 2.21784L37.7338 8.56034Z" />
<path d="M8.85937 22.5313C8.85691 22.5271 8.85035 22.5171 8.84789 22.5129C8.59687 22.1274 8.08828 22.0232 7.71176 22.2802C7.33523 22.5364 7.23351 23.0571 7.48289 23.4434C7.64039 23.6903 7.90289 23.8255 8.17113 23.8255C8.32289 23.8255 8.47629 23.7827 8.6141 23.692C8.9939 23.4409 9.10383 22.921 8.85937 22.5313Z" />
<path d="M7.61166 20.4443C6.81186 19.009 6.09408 17.5074 5.47557 15.9806C5.30248 15.5522 4.82178 15.349 4.40424 15.5262C3.98588 15.7034 3.78654 16.1947 3.96045 16.6239C4.6044 18.2154 5.35334 19.7808 6.18678 21.2766C6.33854 21.5479 6.61498 21.7007 6.89963 21.7007C7.03744 21.7007 7.17689 21.6655 7.30486 21.5899C7.69861 21.3606 7.83643 20.8474 7.61166 20.4443Z" />
<path d="M25.67 10.7492C25.5076 10.7273 25.3427 10.7164 25.1795 10.7164C23.3157 10.7164 21.7268 12.145 21.484 14.0388C21.2157 16.1275 22.6562 18.0499 24.6963 18.3254C24.8587 18.3472 25.0236 18.3581 25.1869 18.3581C27.0506 18.3581 28.6396 16.9296 28.8824 15.0357C29.1514 12.947 27.7101 11.0238 25.67 10.7492ZM27.2557 14.8157C27.1195 15.8773 26.2295 16.6776 25.186 16.6776C25.0942 16.6776 25.0015 16.6717 24.9096 16.6591C23.7669 16.5046 22.9589 15.4279 23.1098 14.2572C23.246 13.1956 24.136 12.3961 25.1795 12.3961C25.2714 12.3961 25.3641 12.402 25.4559 12.4146C26.5986 12.5683 27.4066 13.6458 27.2557 14.8157Z" />
<path d="M25.4568 21.1951C25.2943 21.1733 25.1295 21.1624 24.9662 21.1624C23.1025 21.1624 21.5135 22.5901 21.2707 24.4848C21.1403 25.4968 21.4028 26.4996 22.0098 27.3092C22.6168 28.1188 23.4946 28.6378 24.483 28.7714C24.6455 28.7932 24.8104 28.8041 24.9736 28.8041C26.8373 28.8041 28.4263 27.3756 28.6699 25.4817C28.9373 23.393 27.4969 21.4706 25.4568 21.1951ZM27.0424 25.2625C26.9063 26.3241 26.0162 27.1244 24.9728 27.1244C24.8809 27.1244 24.7882 27.1177 24.6963 27.106C24.1426 27.0312 23.6504 26.7406 23.3108 26.2863C22.9712 25.8319 22.8236 25.2709 22.8966 24.704C23.0327 23.6424 23.9228 22.8421 24.9662 22.8421C25.0581 22.8421 25.1508 22.848 25.2427 22.8606C26.3854 23.0151 27.1934 24.0926 27.0424 25.2625Z" />
<path d="M20.046 17.7165L17.5243 17.3764C17.0756 17.3151 16.663 17.6392 16.6039 18.0995C16.5449 18.5597 16.8607 18.9813 17.3102 19.0418L19.8319 19.3819C19.868 19.387 19.904 19.3895 19.9401 19.3895C20.3454 19.3895 20.6981 19.0821 20.7523 18.6597C20.8113 18.1986 20.4955 17.777 20.046 17.7165Z" />
<path d="M18.7679 23.9137L18.5456 22.182C18.4865 21.7217 18.0747 21.3984 17.6252 21.4589C17.1757 21.5193 16.8599 21.9409 16.9189 22.4012L17.1412 24.1329C17.1954 24.5554 17.5481 24.8636 17.9533 24.8636C17.9886 24.8636 18.0255 24.8611 18.0616 24.856C18.5111 24.7955 18.827 24.3739 18.7679 23.9137Z" />
</g>
</svg>
