<svg width="20" height="24" viewBox="0 0 20 24" fill="none" xmlns="http://www.w3.org/2000/svg">
<ellipse cx="10.0263" cy="6.18779" rx="5.37529" ry="5.37529" stroke="#9FA6B9" stroke-width="1.5" stroke-linecap="round" stroke-linejoin="round"/>
<path fill-rule="evenodd" clip-rule="evenodd" d="M1.50002 19.0391C1.49857 18.6612 1.58308 18.2879 1.74716 17.9475C2.26203 16.9178 3.71398 16.372 4.91878 16.1249C5.78769 15.9395 6.66859 15.8156 7.55494 15.7542C9.19594 15.61 10.8464 15.61 12.4874 15.7542C13.3737 15.8163 14.2546 15.9402 15.1236 16.1249C16.3284 16.372 17.7803 16.8663 18.2952 17.9475C18.6252 18.6414 18.6252 19.447 18.2952 20.1409C17.7803 21.2221 16.3284 21.7164 15.1236 21.9533C14.2557 22.1464 13.3745 22.2737 12.4874 22.3343C11.1518 22.4475 9.80991 22.4681 8.47141 22.396C8.16249 22.396 7.86386 22.396 7.55494 22.3343C6.67121 22.2745 5.79336 22.1471 4.92908 21.9533C3.71398 21.7164 2.27233 21.2221 1.74716 20.1409C1.58392 19.7965 1.4995 19.4201 1.50002 19.0391Z" stroke="#9FA6B9" stroke-width="1.5" stroke-linecap="round" stroke-linejoin="round"/>
</svg>
