<svg width="28" height="28" viewBox="0 0 28 28" fill="none" xmlns="http://www.w3.org/2000/svg">
<path d="M26.1739 10.9565H23.895C23.7038 10.3326 23.4537 9.73 23.1499 9.156L24.7599 7.546C25.1044 7.20148 25.2943 6.74252 25.2943 6.25374C25.2943 5.76556 25.1044 5.30661 24.7599 4.96209L23.0373 3.23948C22.3489 2.55104 21.1437 2.54922 20.454 3.23948L18.844 4.84948C18.2706 4.54574 17.6674 4.29617 17.0435 4.10443V1.82609C17.0435 0.819304 16.2242 0 15.2174 0H12.7826C11.7758 0 10.9565 0.819304 10.9565 1.82609V4.10504C10.3326 4.29678 9.73 4.54635 9.156 4.85009L7.54539 3.24009C6.83322 2.52791 5.67426 2.52791 4.96209 3.24009L3.23887 4.9627C2.5273 5.67487 2.5273 6.83383 3.23887 7.546L4.84887 9.15661C4.54513 9.73 4.29557 10.3332 4.10383 10.9571H1.82609C0.819304 10.9571 0 11.7764 0 12.7832V15.218C0 16.2242 0.819304 17.0435 1.82609 17.0435H4.10504C4.29678 17.6674 4.54635 18.27 4.85009 18.844L3.24009 20.4546C2.52791 21.1668 2.52791 22.3257 3.24009 23.0379L4.9627 24.7611C5.67487 25.4727 6.83383 25.4727 7.546 24.7611L9.15661 23.1511C9.73 23.4549 10.3332 23.7044 10.9571 23.8962V26.1739C10.9571 27.1807 11.7764 28 12.7832 28H15.218C16.2248 28 17.0441 27.1807 17.0441 26.1739V23.895C17.668 23.7032 18.2712 23.4537 18.8446 23.1499L20.4546 24.7605C21.1449 25.4502 22.3501 25.449 23.0379 24.7605L24.7605 23.0379C25.105 22.6934 25.295 22.2344 25.295 21.7463C25.295 21.2575 25.105 20.7991 24.7605 20.4546L23.1505 18.844C23.4543 18.2706 23.7038 17.6674 23.8956 17.0435H26.1739C27.1807 17.0435 28 16.2242 28 15.2174V12.7826C28 11.7758 27.1807 10.9565 26.1739 10.9565ZM26.7826 15.2174C26.7826 15.5528 26.5099 15.8261 26.1739 15.8261H23.4348C23.1572 15.8261 22.915 16.0142 22.8456 16.2826C22.6301 17.1135 22.302 17.9066 21.8692 18.6395C21.7286 18.8787 21.767 19.183 21.963 19.379L23.8986 21.3153C24.013 21.4297 24.0763 21.5825 24.0763 21.7463C24.0763 21.91 24.013 22.0628 23.8986 22.1772L22.176 23.8998C21.9471 24.1287 21.5436 24.1287 21.3141 23.8998L19.3784 21.9642C19.1824 21.7676 18.8781 21.7298 18.6383 21.8704C17.9066 22.3026 17.1135 22.6313 16.282 22.8462C16.0142 22.915 15.8261 23.1572 15.8261 23.4348V26.1739C15.8261 26.5093 15.5534 26.7826 15.2174 26.7826H12.7826C12.4472 26.7826 12.1739 26.5093 12.1739 26.1739V23.4348C12.1739 23.1572 11.9858 22.915 11.7174 22.8456C10.8865 22.6307 10.0934 22.3026 9.36052 21.8698C9.26435 21.8126 9.15783 21.7852 9.0513 21.7852C8.89365 21.7852 8.73783 21.8461 8.62035 21.9636L6.6847 23.8992C6.4467 24.1366 6.06078 24.1366 5.82278 23.8992L4.10017 22.1766C3.86217 21.9386 3.86217 21.5521 4.10017 21.3147L6.03583 19.379C6.23243 19.1824 6.27078 18.8781 6.12956 18.6395C5.69739 17.9066 5.3687 17.1141 5.15383 16.2826C5.08504 16.0142 4.84278 15.8261 4.56522 15.8261H1.82609C1.4907 15.8261 1.21739 15.5528 1.21739 15.2174V12.7826C1.21739 12.4472 1.4907 12.1739 1.82609 12.1739H4.56522C4.84278 12.1739 5.08504 11.9858 5.15443 11.7174C5.3693 10.8865 5.69739 10.0934 6.13017 9.36052C6.27139 9.1213 6.23304 8.81696 6.03643 8.62096L4.10078 6.6853C3.86339 6.44791 3.86339 6.06139 4.10078 5.82339L5.82339 4.10078C6.06139 3.86278 6.4473 3.86339 6.6853 4.10078L8.62096 6.03643C8.81756 6.23304 9.1213 6.272 9.36052 6.13017C10.0934 5.698 10.8859 5.3693 11.7174 5.15443C11.9858 5.08504 12.1739 4.84278 12.1739 4.56522V1.82609C12.1739 1.4907 12.4472 1.21739 12.7826 1.21739H15.2174C15.5534 1.21739 15.8261 1.4907 15.8261 1.82609V4.56522C15.8261 4.84278 16.0142 5.08504 16.2826 5.15443C17.1141 5.3693 17.9072 5.698 18.6389 6.13017C18.8787 6.27139 19.183 6.23365 19.379 6.03643L21.3147 4.10078C21.5442 3.8707 21.9477 3.8713 22.1766 4.10078L23.8992 5.82339C24.0137 5.93783 24.077 6.09122 24.077 6.25435C24.077 6.41748 24.0137 6.57087 23.8992 6.6853L21.9636 8.62096C21.7676 8.81756 21.7286 9.12191 21.8698 9.36052C22.3026 10.0934 22.6307 10.8859 22.8462 11.7174C22.915 11.9858 23.1572 12.1739 23.4348 12.1739H26.1739C26.5099 12.1739 26.7826 12.4472 26.7826 12.7826V15.2174Z" fill="#848BAD"/>
<path d="M14 8.52172C10.9796 8.52172 8.52172 10.9796 8.52172 14C8.52172 17.0203 10.9796 19.4782 14 19.4782C17.0209 19.4782 19.4782 17.0203 19.4782 14C19.4782 10.9796 17.0209 8.52172 14 8.52172ZM14 18.2609C11.6504 18.2609 9.73911 16.3495 9.73911 14C9.73911 11.6504 11.6504 9.73911 14 9.73911C16.3489 9.73911 18.2609 11.6504 18.2609 14C18.2609 16.3495 16.3489 18.2609 14 18.2609Z" fill="#848BAD"/>
</svg>
