<svg width="36" height="36" viewBox="0 0 36 36" fill="none" xmlns="http://www.w3.org/2000/svg">
<path d="M35.268 1.76069C35.1316 1.27833 34.6753 0.957694 34.1754 0.995664C33.9659 1.01113 30.5768 1.28114 27.4957 2.70643C24.648 0.93449 21.3778 0 17.9993 0C13.1913 0 8.67164 1.8725 5.27203 5.27224C1.87242 8.67198 0 13.1918 0 18C0 22.8075 1.87242 27.328 5.27203 30.7278C8.67164 34.1275 13.1913 36 17.9993 36C22.8073 36 27.327 34.1275 30.7266 30.7278C34.1262 27.328 35.9986 22.8075 35.9986 18C35.9986 16.0234 35.6808 14.0848 35.0536 12.2313C37.0055 8.04898 35.3461 2.03703 35.268 1.76069ZM32.7002 12.1118C31.2884 14.1284 28.6369 14.4238 26.9044 14.3731L31.069 8.43502C31.403 7.95758 31.2877 7.30013 30.8109 6.96613C30.3342 6.63143 29.6761 6.74745 29.3421 7.22419L25.181 13.1581C24.5426 11.5458 23.9189 8.96168 25.328 6.94996C25.9305 6.0893 26.8249 5.41709 27.8184 4.89183C27.8768 4.86792 27.9323 4.8391 27.9865 4.80464C29.937 3.81741 32.2242 3.38005 33.4498 3.20497C33.9272 5.45295 34.3765 9.71827 32.7002 12.1118ZM25.3962 3.93273C24.7071 4.44322 24.0891 5.0402 23.5997 5.73913C22.3362 7.54342 22.0366 9.87296 22.7327 12.476C23.0379 13.6187 23.4717 14.5749 23.7734 15.1635L23.6004 15.4103C22.133 17.5029 21.0466 19.8134 20.3723 22.2787L17.7919 31.7051L7.21266 6.33259C10.1573 3.60506 13.9634 2.10946 17.9993 2.10946C20.5995 2.10946 23.1258 2.73597 25.3962 3.93273ZM2.10938 18C2.10938 14.3239 3.34969 10.8391 5.63133 8.02156L16.3835 33.809C12.7498 33.4447 9.38039 31.8528 6.76336 29.2357C3.76172 26.2346 2.10938 22.2442 2.10938 18ZM29.2352 29.2364C26.5662 31.9055 23.1145 33.5073 19.3978 33.8294L22.4072 22.8363C23.0175 20.6066 24.0005 18.5154 25.328 16.6225L25.4981 16.3799C25.9334 16.4355 26.5451 16.4903 27.2545 16.4903C27.6124 16.4903 27.9963 16.4763 28.3943 16.4411C30.4896 16.2569 32.22 15.5594 33.48 14.4034C33.7514 15.5762 33.8892 16.7793 33.8892 18C33.8892 22.2442 32.2362 26.2346 29.2352 29.2364Z" fill="#9FA6B9"/>
</svg>
